<svg height="512" viewBox="0 0 64 64" width="512" xmlns="http://www.w3.org/2000/svg"><g id="Web_crawler" data-name="Web crawler"><path d="m59 3h-54a2 2 0 0 0 -2 2v8h58v-8a2 2 0 0 0 -2-2zm-51 6a1 1 0 1 1 1-1 1 1 0 0 1 -1 1zm6 0a1 1 0 1 1 1-1 1 1 0 0 1 -1 1zm6 0a1 1 0 1 1 1-1 1 1 0 0 1 -1 1zm35 1h-28a2 2 0 0 1 0-4h28a2 2 0 0 1 0 4z" fill="#9bc9ff"/><circle cx="8" cy="8" fill="#9bc9ff" r="1"/><circle cx="14" cy="8" fill="#9bc9ff" r="1"/><circle cx="20" cy="8" fill="#9bc9ff" r="1"/><path d="m32 57c3.314 0 6-4.029 6-9s-2.686-9-6-9-6 4.029-6 9 2.686 9 6 9z" fill="#9bc9ff"/><circle cx="32" cy="35" fill="#9bc9ff" r="4"/><g fill="#1e81ce"><path d="m59 2h-54a3 3 0 0 0 -3 3v46a3 3 0 0 0 3 3h10a1 1 0 0 0 0-2h-10a1 1 0 0 1 -1-1v-37h56v37a1 1 0 0 1 -1 1h-10a1 1 0 0 0 0 2h10a3 3 0 0 0 3-3v-46a3 3 0 0 0 -3-3zm-55 10v-7a1 1 0 0 1 1-1h54a1 1 0 0 1 1 1v7z"/><path d="m55 5h-28a3 3 0 0 0 0 6h28a3 3 0 0 0 0-6zm0 4h-28a1 1 0 0 1 0-2h28a1 1 0 0 1 0 2z"/><circle cx="8" cy="8" r="2"/><circle cx="14" cy="8" r="2"/><circle cx="20" cy="8" r="2"/><path d="m47.707 46.293-4-4a1 1 0 0 0 -1.079-.222l-4.267 1.707a11.47 11.47 0 0 0 -.655-1.626l4.771-2.863a1 1 0 0 0 .47-1.032l-.962-5.431a1 1 0 0 0 -1.97.348l.842 4.754-4.221 2.533a7.2 7.2 0 0 0 -1.616-1.5 4.943 4.943 0 0 0 .627-7.354 3.919 3.919 0 0 0 .353-1.607 4 4 0 0 0 -1.016-2.667 1 1 0 1 0 -1.491 1.334 1.774 1.774 0 0 1 .443 1.724 4.988 4.988 0 0 0 -3.872 0 1.774 1.774 0 0 1 .443-1.724 1 1 0 1 0 -1.491-1.334 4 4 0 0 0 -1.016 2.667 3.919 3.919 0 0 0 .353 1.6 4.943 4.943 0 0 0 .627 7.354 7.2 7.2 0 0 0 -1.616 1.5l-4.221-2.533.842-4.754a1 1 0 0 0 -1.97-.348l-.962 5.431a1 1 0 0 0 .47 1.032l4.771 2.863a11.47 11.47 0 0 0 -.655 1.626l-4.267-1.707a1 1 0 0 0 -1.079.222l-4 4a1 1 0 1 0 1.414 1.414l3.534-3.534 3.936 1.575a14.686 14.686 0 0 0 -.177 2.259c0 .266.013.526.027.786l-3.827-.766a1 1 0 0 0 -1.053.465l-3 5a1 1 0 1 0 1.714 1.03l2.638-4.4 3.792.758a12.831 12.831 0 0 0 .424 1.561l-4.083 1.633a1 1 0 0 0 -.614 1.094l1 6a1 1 0 0 0 .982.839.946.946 0 0 0 .166-.014 1 1 0 0 0 .821-1.151l-.867-5.206 3.395-1.358c1.272 2.285 3.237 3.729 5.485 3.729s4.213-1.444 5.486-3.729l3.4 1.358-.867 5.206a1 1 0 0 0 .821 1.151.946.946 0 0 0 .16.014 1 1 0 0 0 .985-.835l1-6a1 1 0 0 0 -.614-1.094l-4.083-1.633a12.831 12.831 0 0 0 .424-1.561l3.792-.758 2.638 4.4a1 1 0 0 0 1.714-1.03l-3-5a1 1 0 0 0 -1.056-.469l-3.831.766c.014-.26.027-.52.027-.786a14.686 14.686 0 0 0 -.177-2.252l3.936-1.575 3.534 3.534a1 1 0 0 0 1.414-1.414zm-18.707-11.293a3 3 0 1 1 3 3 3 3 0 0 1 -3-3zm-2 13c0-3.79 1.749-7.066 4-7.831v15.662c-2.251-.765-4-4.041-4-7.831zm6 7.831v-15.662c2.251.765 4 4.041 4 7.831s-1.749 7.066-4 7.831z"/><path d="m11 18h-2a1 1 0 0 0 0 2h2a1 1 0 0 0 0-2z"/><path d="m15 20h40a1 1 0 0 0 0-2h-40a1 1 0 0 0 0 2z"/><path d="m11 22h-2a1 1 0 0 0 0 2h2a1 1 0 0 0 0-2z"/><path d="m15 24h40a1 1 0 0 0 0-2h-40a1 1 0 0 0 0 2z"/><path d="m11 26h-2a1 1 0 0 0 0 2h2a1 1 0 0 0 0-2z"/><path d="m15 28h10a1 1 0 0 0 0-2h-10a1 1 0 0 0 0 2z"/><path d="m11 30h-2a1 1 0 0 0 0 2h2a1 1 0 0 0 0-2z"/><path d="m15 32h4a1 1 0 0 0 0-2h-4a1 1 0 0 0 0 2z"/><path d="m11 34h-2a1 1 0 0 0 0 2h2a1 1 0 0 0 0-2z"/><path d="m15 36h4a1 1 0 0 0 0-2h-4a1 1 0 0 0 0 2z"/><path d="m55 26h-16a1 1 0 0 0 0 2h16a1 1 0 0 0 0-2z"/><path d="m55 30h-10a1 1 0 0 0 0 2h10a1 1 0 0 0 0-2z"/><path d="m55 34h-10a1 1 0 0 0 0 2h10a1 1 0 0 0 0-2z"/></g></g></svg>