<?xml version="1.0" encoding="utf-8"?>
<!-- Generator: Adobe Illustrator 24.0.0, SVG Export Plug-In . SVG Version: 6.00 Build 0)  -->
<svg version="1.1" xmlns="http://www.w3.org/2000/svg" xmlns:xlink="http://www.w3.org/1999/xlink" x="0px" y="0px"
	 viewBox="0 0 807 423" style="enable-background:new 0 0 807 423;" xml:space="preserve">
<style type="text/css">
	.st0{display:none;}
	.st1{fill:#332D37;}
	.st2{fill:#332D37;stroke:#000000;stroke-width:0.25;stroke-linejoin:round;stroke-miterlimit:10;}
</style>
<g id="Layer_2" class="st0">
	
		<image style="display:inline;overflow:visible;" width="294" height="103" xlink:href="../../../SystemVerilog_logo.png"  transform="matrix(2.3741 0 0 2.3741 47 66.4626)">
	</image>
</g>
<g id="draw">
	<g>
		<path class="st1" d="M152.6,215.1c1.7,4.4,3.7,7.9,5.9,10.5c3.9,4.6,8.8,6.8,14.7,6.8c3.2,0,5.9-1,8.2-3c2.3-2,3.5-4.7,3.5-8.3
			c0-3.2-1.2-6-3.5-8.3c-1.5-1.5-4.7-3.7-9.6-6.7l-8.5-5.2c-2.6-1.6-4.6-3.2-6.1-4.8c-2.8-3.1-4.2-6.5-4.2-10.2c0-4.9,1.7-9,5-12.3
			c3.3-3.3,7.8-4.9,13.3-4.9c2.3,0,5,0.5,8.2,1.6c3.2,1.1,5,1.6,5.5,1.6c1.2,0,2.1-0.3,2.6-0.9c0.5-0.6,0.8-1.4,1.1-2.4h2l2.2,20.8
			h-2.4c-1.6-6.3-4.2-10.7-7.8-13.1c-3.6-2.5-7.1-3.7-10.6-3.7c-2.7,0-5.1,0.8-7.1,2.4c-2,1.6-3,3.8-3,6.6c0,2.5,0.8,4.7,2.3,6.4
			c1.6,1.8,4,3.7,7.2,5.7l8.7,5.3c5.5,3.3,9.3,6.4,11.6,9.1c2.2,2.8,3.3,6.1,3.3,9.9c0,5.1-2,9.4-5.9,12.9c-3.9,3.4-9,5.2-15.1,5.2
			c-3.1,0-6.3-0.6-9.6-1.7c-3.4-1.1-5.3-1.7-5.8-1.7c-1.2,0-2,0.4-2.4,1.1c-0.4,0.7-0.7,1.5-0.8,2.2h-2.2l-3-20.8H152.6z"/>
		<path class="st1" d="M192.2,192.3h20.5v1.3c-1.6,0-2.8,0.2-3.6,0.4c-1.5,0.4-2.2,1.3-2.2,2.5c0,0.5,0.1,0.9,0.2,1.4
			c0.2,0.5,0.5,1.2,0.9,2.1l11.2,23.9l9.3-24.1c0.1-0.3,0.3-0.8,0.5-1.8c0.2-0.9,0.3-1.5,0.3-1.9c0-0.8-0.3-1.5-0.9-1.9
			c-0.6-0.4-1.3-0.6-2.2-0.7l-1.5-0.1v-1.3H238v1.3c-1.3,0.2-2.3,0.6-3,1.4c-0.7,0.8-1.2,1.8-1.7,3.2L218,238
			c-2.7,6.9-5.2,11.9-7.6,15c-2.4,3.1-5.5,4.6-9.2,4.6c-1.8,0-3.5-0.4-5.1-1.3c-1.6-0.9-2.4-2.3-2.4-4.3c0-1.3,0.5-2.3,1.4-3.1
			c0.9-0.8,2.1-1.2,3.6-1.2c0.8,0,2.1,0.3,3.7,0.9c1.6,0.6,2.8,0.9,3.5,0.9c1.8,0,3.7-2.2,5.7-6.5c2-4.3,3-7.2,3-8.6
			c0-0.3,0-0.6-0.1-1c-0.1-0.4-0.2-0.8-0.3-1.1l-15.3-32.6c-1.1-2.4-2.1-3.9-2.9-4.7c-0.8-0.7-2-1.2-3.7-1.5V192.3z"/>
		<path class="st1" d="M239.2,221.1h1.6c0.7,3.4,1.7,6,3,7.8c2.3,3.3,5.6,5,9.9,5c2.4,0,4.3-0.6,5.7-1.9c1.4-1.2,2.1-2.8,2.1-4.8
			c0-1.3-0.4-2.5-1.2-3.6c-0.8-1.2-2.2-2.3-4.3-3.4l-5.4-2.9c-4-2-6.9-3.9-8.8-5.9c-1.9-2-2.8-4.3-2.8-7.1c0-3.3,1.3-6.1,3.9-8.2
			c2.6-2.1,5.8-3.2,9.8-3.2c1.7,0,3.6,0.3,5.7,0.9c2.1,0.6,3.2,0.9,3.5,0.9c0.6,0,1-0.1,1.3-0.2c0.3-0.1,0.5-0.4,0.7-0.7h1.2
			l0.3,12.5h-1.5c-0.6-2.9-1.5-5.1-2.6-6.7c-2-3-4.9-4.5-8.7-4.5c-2.3,0-4,0.6-5.3,1.9c-1.3,1.3-1.9,2.8-1.9,4.5
			c0,2.7,2.2,5.2,6.7,7.3l6.4,3.2c6.9,3.5,10.3,7.5,10.3,12.1c0,3.5-1.4,6.4-4.3,8.6c-2.9,2.2-6.6,3.4-11.2,3.4
			c-1.9,0-4.1-0.3-6.6-0.9s-3.9-0.9-4.4-0.9c-0.4,0-0.7,0.1-1,0.4c-0.3,0.3-0.5,0.6-0.7,0.9h-1.3V221.1z"/>
		<path class="st1" d="M294.8,195.9v3.1h-10.2l-0.1,24.6c0,2.2,0.2,3.8,0.6,4.9c0.8,2,2.4,2.9,4.7,2.9c1.2,0,2.2-0.2,3.1-0.7
			c0.9-0.5,1.9-1.3,3-2.3l1.3,0.9l-1.1,1.3c-1.7,2-3.6,3.4-5.5,4.2c-1.9,0.8-3.8,1.2-5.6,1.2c-3.9,0-6.6-1.5-8-4.5
			c-0.8-1.6-1.1-3.9-1.1-6.7v-25.9h-5.4c-0.2-0.1-0.3-0.2-0.4-0.3c-0.1-0.1-0.1-0.2-0.1-0.3c0-0.3,0.1-0.5,0.2-0.7
			c0.1-0.2,0.6-0.5,1.4-1.1c2.3-1.6,3.9-2.9,5-3.9c1-1,3.4-3.7,7.1-8c0.4,0,0.7,0,0.8,0.1c0.1,0.1,0.1,0.3,0.1,0.6v10.5H294.8z"/>
		<path class="st1" d="M330.7,199.2c3.1,2.8,4.6,6.7,4.6,11.8h-27.5c0.3,6.6,1.8,11.4,4.5,14.4c2.7,3,6,4.5,9.7,4.5
			c3,0,5.6-0.8,7.7-2.3c2.1-1.6,4-3.8,5.8-6.6l1.5,0.5c-1.2,3.6-3.4,7-6.6,10c-3.2,3.1-7.2,4.6-11.9,4.6c-5.4,0-9.6-2-12.6-6
			c-3-4-4.4-8.7-4.4-13.9c0-5.7,1.7-10.6,5.2-14.8c3.4-4.1,7.9-6.2,13.4-6.2C324.1,195,327.6,196.4,330.7,199.2z M309.9,202.5
			c-0.9,1.5-1.6,3.5-2,5.8h18.3c-0.3-2.8-0.9-5-1.6-6.3c-1.4-2.5-3.8-3.7-7.1-3.7C314.2,198.2,311.7,199.6,309.9,202.5z"/>
		<path class="st1" d="M340.4,234.8c2.5-0.2,4.2-0.6,5-1.2c1.3-0.9,1.9-2.7,1.9-5.3v-23.7c0-2.3-0.3-3.7-0.9-4.4
			c-0.6-0.7-1.7-1.1-3.1-1.1c-0.7,0-1.2,0-1.5,0.1s-0.7,0.2-1.2,0.3v-1.6l3.5-1.1c1.3-0.4,3.3-1.1,6.2-2.2c2.9-1,4.4-1.6,4.5-1.6
			c0.2,0,0.3,0.1,0.3,0.2c0,0.2,0,0.4,0,0.9v6.2c3.2-2.8,5.9-4.7,8.2-5.7c2.3-1.1,4.7-1.6,7.1-1.6c3.3,0,5.9,1.1,7.9,3.2
			c1,1.2,1.9,2.7,2.6,4.7c2.4-2.3,4.5-4,6.2-5.1c3.1-1.9,6.2-2.8,9.4-2.8c5.2,0,8.6,2,10.4,6c1,2.3,1.5,5.8,1.5,10.7v19
			c0,2.2,0.5,3.6,1.5,4.4c1,0.8,2.8,1.3,5.5,1.5v1.2h-21.8v-1.3c2.8-0.2,4.6-0.8,5.5-1.6c0.9-0.8,1.3-2.5,1.3-5v-19.8
			c0-3-0.3-5.1-1-6.6c-1.2-2.5-3.5-3.8-7-3.8c-2.1,0-4.2,0.7-6.2,2c-1.2,0.8-2.7,2-4.4,3.7v23.5c0,2.5,0.5,4.4,1.4,5.6
			c0.9,1.3,2.9,2,5.8,2.1v1.2h-22.1v-1.2c3.1-0.4,5-1.1,5.8-2.1c0.8-1,1.3-3.6,1.3-7.7v-12.8c0-4.7-0.3-7.9-1-9.7
			c-1.1-3-3.3-4.5-6.8-4.5c-2,0-3.9,0.5-5.8,1.5c-1.9,1-3.6,2.4-5,4v25.1c0,2.3,0.4,3.9,1.3,4.8c0.9,0.9,2.7,1.3,5.6,1.4v1.2h-21.9
			V234.8z"/>
		<path class="st1" d="M423.9,170.2v1.7c-2.5,0-4.2,0.2-5.1,0.5c-1.6,0.5-2.4,1.6-2.4,3.2c0,0.8,0.3,1.9,0.8,3.4
			c0.6,1.5,1.6,3.9,3.2,7.2l15.6,34.1l14.1-36.9c0.6-1.6,1.1-3,1.4-4.1c0.3-1.1,0.5-2.1,0.5-2.8c0-1.9-0.8-3.2-2.5-3.9
			c-1-0.4-2.6-0.6-4.8-0.7v-1.7h20.3v1.7c-2.1,0.3-3.7,0.8-4.7,1.7c-1.5,1.2-3,3.7-4.5,7.5l-22,55h-1.5l-24.6-53.8
			c-2.1-4.6-3.7-7.4-5-8.5c-1.2-1.1-3.1-1.8-5.5-1.9v-1.7H423.9z"/>
		<path class="st1" d="M483.1,194.7c3.4,3.1,5.1,7.5,5.1,13.2h-30.8c0.3,7.4,2,12.7,5.1,16.1c3.1,3.4,6.7,5.1,10.9,5.1
			c3.4,0,6.3-0.9,8.6-2.6c2.3-1.7,4.5-4.2,6.5-7.4l1.7,0.6c-1.3,4.1-3.8,7.8-7.5,11.2c-3.6,3.4-8.1,5.2-13.4,5.2
			c-6.1,0-10.8-2.3-14.1-6.8c-3.3-4.5-5-9.7-5-15.6c0-6.4,1.9-11.9,5.8-16.6s8.9-7,15.1-7C475.7,190.1,479.7,191.6,483.1,194.7z
			 M459.8,198.4c-1,1.7-1.8,3.9-2.2,6.5h20.5c-0.4-3.2-1-5.6-1.8-7.1c-1.6-2.8-4.2-4.2-8-4.2C464.6,193.6,461.8,195.2,459.8,198.4z"
			/>
		<path class="st1" d="M491.3,234.4c3-0.3,5-0.8,5.9-1.6s1.5-2.4,1.5-5v-21.5c0-3.2-0.3-5.4-0.9-6.8c-0.6-1.4-1.7-2-3.3-2
			c-0.3,0-0.8,0-1.3,0.1c-0.5,0.1-1.1,0.2-1.7,0.3v-1.6c1.8-0.6,3.7-1.3,5.7-2c1.9-0.7,3.3-1.1,4-1.4c1.6-0.6,3.3-1.3,5-2.1
			c0.2,0,0.4,0.1,0.4,0.2c0,0.2,0.1,0.5,0.1,1v7.8c2.1-2.8,4.1-5,6-6.6c1.9-1.6,3.9-2.4,6-2.4c1.7,0,3,0.5,4,1.5
			c1,1,1.6,2.2,1.6,3.7c0,1.3-0.4,2.4-1.2,3.3c-0.8,0.9-1.8,1.3-3,1.3c-1.2,0-2.5-0.6-3.7-1.7c-1.2-1.1-2.2-1.7-2.9-1.7
			c-1.1,0-2.5,0.9-4.2,2.7c-1.7,1.8-2.5,3.7-2.5,5.6v21.5c0,2.7,0.6,4.6,1.9,5.7c1.3,1.1,3.4,1.6,6.5,1.5v1.6h-23.9V234.4z"/>
		<path class="st1" d="M525.7,234.7c3.5-0.3,5.7-0.9,6.6-1.7c0.9-0.8,1.4-3.1,1.4-6.9v-22.8c0-2.1-0.1-3.5-0.4-4.3
			c-0.5-1.3-1.5-2-3.1-2c-0.4,0-0.7,0-1,0.1c-0.3,0.1-1.3,0.3-2.9,0.8v-1.5l2.1-0.7c5.7-1.8,9.6-3.2,11.9-4.1
			c0.9-0.4,1.5-0.6,1.7-0.6c0.1,0.2,0.1,0.5,0.1,0.7v34.3c0,3.6,0.4,5.9,1.3,6.8c0.9,0.9,2.9,1.5,6,1.8v1.3h-23.6V234.7z
			 M533.4,170.8c1-1,2.2-1.5,3.6-1.5c1.4,0,2.6,0.5,3.6,1.5c1,1,1.5,2.1,1.5,3.5c0,1.4-0.5,2.5-1.5,3.5c-1,1-2.2,1.4-3.6,1.4
			c-1.4,0-2.6-0.5-3.6-1.4c-1-1-1.5-2.1-1.5-3.5S532.5,171.8,533.4,170.8z"/>
		<path class="st1" d="M553.2,234.7c3-0.3,5.1-0.9,6.1-1.8c1.1-0.9,1.6-2.7,1.6-5.3v-46.7c0-2.1-0.2-3.6-0.5-4.3c-0.6-1.3-2-2-3.9-2
			c-0.5,0-0.9,0-1.5,0.1c-0.5,0.1-1.2,0.2-2,0.4v-1.6c4.4-1.1,9.6-2.7,15.8-4.6c0.2,0,0.4,0.1,0.4,0.3c0,0.2,0.1,0.6,0.1,1.2v57.3
			c0,2.8,0.5,4.6,1.5,5.4c1,0.8,3,1.3,6,1.6v1.3h-23.5V234.7z"/>
		<path class="st1" d="M580.1,196.3c4.1-4.4,9.4-6.6,15.8-6.6c6.4,0,11.7,2.1,15.9,6.2c4.2,4.1,6.3,9.6,6.3,16.5
			c0,6.3-2,11.8-6.1,16.5s-9.4,7-15.8,7c-6.2,0-11.5-2.2-15.8-6.7c-4.3-4.5-6.5-10.1-6.5-16.9C574,206,576,200.7,580.1,196.3z
			 M587.9,195.1c-3.2,2.9-4.9,7.9-4.9,15c0,5.7,1.3,11,3.9,15.9c2.6,4.9,6.2,7.4,10.9,7.4c3.6,0,6.4-1.6,8.4-4.9
			c2-3.3,2.9-7.6,2.9-12.9c0-5.5-1.2-10.7-3.7-15.6c-2.5-4.9-6.1-7.3-10.9-7.3C592,192.6,589.8,193.4,587.9,195.1z"/>
		<path class="st1" d="M627.9,215.7c-1.7-2.5-2.6-5.4-2.6-8.5c0-3.8,1.6-7.5,4.8-10.9c3.2-3.4,7.7-5.2,13.6-5.2
			c2.5,0,5.3,0.6,8.3,1.7c3,1.1,5.9,1.7,8.7,1.7c0.7,0,1.8,0,3.3-0.1s2.5-0.1,3.2-0.1h0.6v4h-8.9c0.6,1.4,1.1,2.6,1.4,3.6
			c0.6,1.9,0.9,3.7,0.9,5.4c0,3.7-1.6,7.2-4.9,10.3c-3.3,3.1-7.6,4.7-13.2,4.7c-0.9,0-2.4-0.1-4.7-0.4c-1,0-2.3,0.8-4,2.4
			c-1.7,1.6-2.5,2.9-2.5,3.9c0,1.1,1.2,1.8,3.6,2.3c1.6,0.3,3.3,0.5,5.3,0.5c8.9,0,14.9,0.5,18.1,1.4c5.2,1.5,7.8,4.8,7.8,9.9
			c0,5.2-3,9.3-9.1,12.4c-6.1,3.1-12.2,4.6-18.4,4.6c-5.7,0-10.1-1.1-13.4-3.3c-3.3-2.2-5-4.5-5-6.9c0-1.2,0.4-2.3,1.3-3.5
			c0.9-1.1,2.6-2.8,5.2-5l3.4-2.9l0.6-0.6c-1.6-0.6-2.8-1.2-3.5-1.7c-1.4-1-2.1-2.2-2.1-3.5c0-1.2,0.6-2.5,1.8-4
			c1.2-1.5,3.7-3.8,7.6-7.1C632,220,629.6,218.2,627.9,215.7z M633.3,252.3c3.3,1,7,1.6,11.2,1.6c5.7,0,10.4-0.9,14-2.8
			c3.6-1.9,5.4-4.2,5.4-7c0-2.2-1.5-3.7-4.4-4.4c-1.8-0.4-5.2-0.7-10.2-0.7c-1.3,0-2.6-0.1-4-0.1c-1.4,0-2.7-0.1-3.9-0.2
			c-0.8,0-2-0.2-3.7-0.4c-1.7-0.2-3-0.4-3.8-0.6c-0.4,0-1.4,1-3,3.1c-1.6,2.1-2.5,4-2.5,5.8C628.5,249.3,630.1,251.2,633.3,252.3z
			 M649.8,218.5c2.1-1.6,3.1-4.3,3.1-8.2c0-3.1-0.8-6.6-2.5-10.5c-1.7-3.9-4.5-5.8-8.4-5.8c-3.4,0-5.7,1.5-7,4.6
			c-0.7,1.6-1,3.6-1,5.9c0,4,1,7.6,3.1,10.8c2,3.2,4.7,4.8,7.9,4.8C646.9,220,648.5,219.5,649.8,218.5z"/>
		<path class="st2" d="M215.4,167c11.9-23.7,117.1-68.7,249.2-68.2c106.8,0.4,232.7,14.2,273,90.2h-64.1
			c-26.1-64.1-325-109.7-458-21.7L215.4,167z"/>
		<path class="st2" d="M591.6,256c-11.9,23.7-117.1,68.7-249.2,68.2c-106.8-0.4-232.7-14.2-273-90.2h64.1
			c26.1,64.1,325,109.7,458,21.7L591.6,256z"/>
	</g>
</g>
</svg>
